<svg width="136" height="57" viewBox="0 0 136 57" fill="none" xmlns="http://www.w3.org/2000/svg">
<g clip-path="url(#clip0_1_788)">
<path d="M21.5029 15.168C21.0049 15.168 20.5788 14.9964 20.2246 14.6533C19.8815 14.2992 19.71 13.8675 19.71 13.3584C19.71 12.8714 19.8815 12.4508 20.2246 12.0967C20.5788 11.7425 21.0049 11.5654 21.5029 11.5654C22.001 11.5654 22.4215 11.7425 22.7646 12.0967C23.1188 12.4508 23.2959 12.8714 23.2959 13.3584C23.2959 13.8675 23.1188 14.2992 22.7646 14.6533C22.4215 14.9964 22.001 15.168 21.5029 15.168ZM26.334 15.9482C25.8359 15.9482 25.4098 15.7767 25.0557 15.4336C24.7126 15.0794 24.541 14.6533 24.541 14.1553C24.541 13.6572 24.7126 13.2311 25.0557 12.877C25.4098 12.5228 25.8359 12.3457 26.334 12.3457C26.832 12.3457 27.2581 12.5228 27.6123 12.877C27.9665 13.2311 28.1436 13.6572 28.1436 14.1553C28.1436 14.6533 27.9665 15.0794 27.6123 15.4336C27.2581 15.7767 26.832 15.9482 26.334 15.9482ZM30.7168 18.1729C30.2188 18.1729 29.7926 17.9958 29.4385 17.6416C29.0954 17.2874 28.9238 16.8613 28.9238 16.3633C28.9238 15.8763 29.0954 15.4557 29.4385 15.1016C29.7926 14.7474 30.2188 14.5703 30.7168 14.5703C31.2148 14.5703 31.6354 14.7474 31.9785 15.1016C32.3327 15.4557 32.5098 15.8763 32.5098 16.3633C32.5098 16.8613 32.3327 17.2874 31.9785 17.6416C31.6354 17.9958 31.2148 18.1729 30.7168 18.1729ZM34.1865 21.6426C33.6885 21.6426 33.2624 21.4655 32.9082 21.1113C32.554 20.7572 32.377 20.3311 32.377 19.833C32.377 19.335 32.554 18.9144 32.9082 18.5713C33.2624 18.2171 33.6885 18.04 34.1865 18.04C34.6735 18.04 35.0941 18.2171 35.4482 18.5713C35.8024 18.9144 35.9795 19.335 35.9795 19.833C35.9795 20.3311 35.8024 20.7572 35.4482 21.1113C35.0941 21.4655 34.6735 21.6426 34.1865 21.6426ZM36.3945 25.959C35.8965 25.959 35.4704 25.7819 35.1162 25.4277C34.762 25.0736 34.585 24.653 34.585 24.166C34.585 23.668 34.762 23.2419 35.1162 22.8877C35.4704 22.5335 35.8965 22.3564 36.3945 22.3564C36.8815 22.3564 37.3021 22.5335 37.6562 22.8877C38.0104 23.2419 38.1875 23.668 38.1875 24.166C38.1875 24.653 38.0104 25.0736 37.6562 25.4277C37.3021 25.7819 36.8815 25.959 36.3945 25.959ZM37.2246 30.8066C36.7266 30.8066 36.3005 30.6296 35.9463 30.2754C35.5921 29.9212 35.415 29.5007 35.415 29.0137C35.415 28.5156 35.5921 28.0895 35.9463 27.7354C36.3005 27.3812 36.7266 27.2041 37.2246 27.2041C37.7227 27.2041 38.1432 27.3812 38.4863 27.7354C38.8405 28.0895 39.0176 28.5156 39.0176 29.0137C39.0176 29.5007 38.8405 29.9212 38.4863 30.2754C38.1432 30.6296 37.7227 30.8066 37.2246 30.8066ZM36.3945 35.6543C35.8965 35.6543 35.4704 35.4827 35.1162 35.1396C34.762 34.7855 34.585 34.3594 34.585 33.8613C34.585 33.3633 34.762 32.9372 35.1162 32.583C35.4704 32.2288 35.8965 32.0518 36.3945 32.0518C36.8815 32.0518 37.3021 32.2288 37.6562 32.583C38.0104 32.9372 38.1875 33.3633 38.1875 33.8613C38.1875 34.3594 38.0104 34.7855 37.6562 35.1396C37.3021 35.4827 36.8815 35.6543 36.3945 35.6543ZM34.1865 39.9873C33.6885 39.9873 33.2624 39.8102 32.9082 39.4561C32.554 39.1019 32.377 38.6758 32.377 38.1777C32.377 37.6797 32.554 37.2591 32.9082 36.916C33.2624 36.5618 33.6885 36.3848 34.1865 36.3848C34.6735 36.3848 35.0941 36.5618 35.4482 36.916C35.8024 37.2591 35.9795 37.6797 35.9795 38.1777C35.9795 38.6758 35.8024 39.1019 35.4482 39.4561C35.0941 39.8102 34.6735 39.9873 34.1865 39.9873ZM30.7168 43.457C30.2188 43.457 29.7926 43.2799 29.4385 42.9258C29.0954 42.5716 28.9238 42.1455 28.9238 41.6475C28.9238 41.1605 29.0954 40.7399 29.4385 40.3857C29.7926 40.0316 30.2188 39.8545 30.7168 39.8545C31.2148 39.8545 31.6354 40.0316 31.9785 40.3857C32.3327 40.7399 32.5098 41.1605 32.5098 41.6475C32.5098 42.1455 32.3327 42.5716 31.9785 42.9258C31.6354 43.2799 31.2148 43.457 30.7168 43.457ZM26.334 45.665C25.8359 45.665 25.4098 45.488 25.0557 45.1338C24.7126 44.7796 24.541 44.359 24.541 43.8721C24.541 43.374 24.7126 42.9479 25.0557 42.5938C25.4098 42.2396 25.8359 42.0625 26.334 42.0625C26.832 42.0625 27.2581 42.2396 27.6123 42.5938C27.9665 42.9479 28.1436 43.374 28.1436 43.8721C28.1436 44.359 27.9665 44.7796 27.6123 45.1338C27.2581 45.488 26.832 45.665 26.334 45.665ZM21.5029 46.4453C21.0049 46.4453 20.5788 46.2682 20.2246 45.9141C19.8815 45.5599 19.71 45.1393 19.71 44.6523C19.71 44.1543 19.8815 43.7282 20.2246 43.374C20.5788 43.0309 21.0049 42.8594 21.5029 42.8594C22.001 42.8594 22.4215 43.0309 22.7646 43.374C23.1188 43.7282 23.2959 44.1543 23.2959 44.6523C23.2959 45.1393 23.1188 45.5599 22.7646 45.9141C22.4215 46.2682 22.001 46.4453 21.5029 46.4453ZM16.6719 45.665C16.1738 45.665 15.7477 45.488 15.3936 45.1338C15.0394 44.7796 14.8623 44.359 14.8623 43.8721C14.8623 43.374 15.0394 42.9479 15.3936 42.5938C15.7477 42.2396 16.1738 42.0625 16.6719 42.0625C17.1589 42.0625 17.5794 42.2396 17.9336 42.5938C18.2878 42.9479 18.4648 43.374 18.4648 43.8721C18.4648 44.359 18.2878 44.7796 17.9336 45.1338C17.5794 45.488 17.1589 45.665 16.6719 45.665ZM12.2891 43.457C11.791 43.457 11.3649 43.2799 11.0107 42.9258C10.6676 42.5716 10.4961 42.1455 10.4961 41.6475C10.4961 41.1605 10.6676 40.7399 11.0107 40.3857C11.3649 40.0316 11.791 39.8545 12.2891 39.8545C12.776 39.8545 13.1966 40.0316 13.5508 40.3857C13.9049 40.7399 14.082 41.1605 14.082 41.6475C14.082 42.1455 13.9049 42.5716 13.5508 42.9258C13.1966 43.2799 12.776 43.457 12.2891 43.457ZM8.81934 39.9873C8.32129 39.9873 7.89518 39.8102 7.54102 39.4561C7.18685 39.1019 7.00977 38.6758 7.00977 38.1777C7.00977 37.6797 7.18685 37.2591 7.54102 36.916C7.89518 36.5618 8.32129 36.3848 8.81934 36.3848C9.30632 36.3848 9.72689 36.5618 10.0811 36.916C10.4352 37.2591 10.6123 37.6797 10.6123 38.1777C10.6123 38.6758 10.4352 39.1019 10.0811 39.4561C9.72689 39.8102 9.30632 39.9873 8.81934 39.9873ZM6.61133 35.6543C6.11328 35.6543 5.68717 35.4827 5.33301 35.1396C4.97884 34.7855 4.80176 34.3594 4.80176 33.8613C4.80176 33.3633 4.97884 32.9372 5.33301 32.583C5.68717 32.2288 6.11328 32.0518 6.61133 32.0518C7.10938 32.0518 7.52995 32.2288 7.87305 32.583C8.22721 32.9372 8.4043 33.3633 8.4043 33.8613C8.4043 34.3594 8.22721 34.7855 7.87305 35.1396C7.52995 35.4827 7.10938 35.6543 6.61133 35.6543ZM5.78125 30.8066C5.2832 30.8066 4.8571 30.6296 4.50293 30.2754C4.14876 29.9212 3.97168 29.5007 3.97168 29.0137C3.97168 28.5156 4.14876 28.0895 4.50293 27.7354C4.8571 27.3812 5.2832 27.2041 5.78125 27.2041C6.26823 27.2041 6.6888 27.3812 7.04297 27.7354C7.39714 28.0895 7.57422 28.5156 7.57422 29.0137C7.57422 29.5007 7.39714 29.9212 7.04297 30.2754C6.6888 30.6296 6.26823 30.8066 5.78125 30.8066ZM6.61133 25.959C6.11328 25.959 5.68717 25.7819 5.33301 25.4277C4.97884 25.0736 4.80176 24.653 4.80176 24.166C4.80176 23.668 4.97884 23.2419 5.33301 22.8877C5.68717 22.5335 6.11328 22.3564 6.61133 22.3564C7.10938 22.3564 7.52995 22.5335 7.87305 22.8877C8.22721 23.2419 8.4043 23.668 8.4043 24.166C8.4043 24.653 8.22721 25.0736 7.87305 25.4277C7.52995 25.7819 7.10938 25.959 6.61133 25.959ZM8.81934 21.6426C8.32129 21.6426 7.89518 21.4655 7.54102 21.1113C7.18685 20.7572 7.00977 20.3311 7.00977 19.833C7.00977 19.335 7.18685 18.9144 7.54102 18.5713C7.89518 18.2171 8.32129 18.04 8.81934 18.04C9.30632 18.04 9.72689 18.2171 10.0811 18.5713C10.4352 18.9144 10.6123 19.335 10.6123 19.833C10.6123 20.3311 10.4352 20.7572 10.0811 21.1113C9.72689 21.4655 9.30632 21.6426 8.81934 21.6426ZM12.2891 18.1729C11.791 18.1729 11.3649 17.9958 11.0107 17.6416C10.6676 17.2874 10.4961 16.8613 10.4961 16.3633C10.4961 15.8763 10.6676 15.4557 11.0107 15.1016C11.3649 14.7474 11.791 14.5703 12.2891 14.5703C12.776 14.5703 13.1966 14.7474 13.5508 15.1016C13.9049 15.4557 14.082 15.8763 14.082 16.3633C14.082 16.8613 13.9049 17.2874 13.5508 17.6416C13.1966 17.9958 12.776 18.1729 12.2891 18.1729ZM16.6719 15.9482C16.1738 15.9482 15.7477 15.7767 15.3936 15.4336C15.0394 15.0794 14.8623 14.6533 14.8623 14.1553C14.8623 13.6572 15.0394 13.2311 15.3936 12.877C15.7477 12.5228 16.1738 12.3457 16.6719 12.3457C17.1589 12.3457 17.5794 12.5228 17.9336 12.877C18.2878 13.2311 18.4648 13.6572 18.4648 14.1553C18.4648 14.6533 18.2878 15.0794 17.9336 15.4336C17.5794 15.7767 17.1589 15.9482 16.6719 15.9482ZM34.5518 46.5449C32.1501 46.5449 29.8923 46.0856 27.7783 45.167C25.6644 44.2594 23.7995 42.9977 22.1836 41.3818C20.5677 39.777 19.3005 37.9176 18.3818 35.8037C17.4743 33.6898 17.0205 31.4264 17.0205 29.0137C17.0205 26.612 17.4743 24.3542 18.3818 22.2402C19.3005 20.1263 20.5622 18.2614 22.167 16.6455C23.7829 15.0296 25.6478 13.7679 27.7617 12.8604C29.8867 11.9417 32.1501 11.4824 34.5518 11.4824C36.9535 11.4824 39.2113 11.9417 41.3252 12.8604C43.4502 13.7679 45.3151 15.0296 46.9199 16.6455C48.5358 18.2614 49.8031 20.1263 50.7217 22.2402C51.6403 24.3542 52.0996 26.612 52.0996 29.0137C52.0996 31.4264 51.6403 33.6898 50.7217 35.8037C49.8031 37.9176 48.5358 39.777 46.9199 41.3818C45.3151 42.9977 43.4557 44.2594 41.3418 45.167C39.2279 46.0856 36.9645 46.5449 34.5518 46.5449ZM34.5518 42.1787C36.3779 42.1787 38.0879 41.8356 39.6816 41.1494C41.2754 40.4743 42.6755 39.5391 43.8818 38.3438C45.0882 37.1374 46.029 35.7373 46.7041 34.1436C47.3903 32.5498 47.7334 30.8398 47.7334 29.0137C47.7334 27.1875 47.3903 25.4831 46.7041 23.9004C46.0179 22.3066 45.0716 20.9066 43.8652 19.7002C42.6699 18.4938 41.2754 17.5531 39.6816 16.8779C38.0879 16.1917 36.3779 15.8486 34.5518 15.8486C32.7256 15.8486 31.0156 16.1917 29.4219 16.8779C27.8392 17.5531 26.4447 18.4938 25.2383 19.7002C24.0319 20.9066 23.0911 22.3066 22.416 23.9004C21.7409 25.4831 21.4033 27.1875 21.4033 29.0137C21.4033 30.8398 21.7409 32.5498 22.416 34.1436C23.0911 35.7373 24.0319 37.1374 25.2383 38.3438C26.4447 39.5391 27.8447 40.4743 29.4385 41.1494C31.0322 41.8356 32.7367 42.1787 34.5518 42.1787Z" fill="#713936"/>
<path d="M63.822 41V17.2H74.124C76.2547 17.2 78.0907 17.5513 79.632 18.254C81.1733 18.934 82.3633 19.92 83.202 21.212C84.0407 22.504 84.46 24.0453 84.46 25.836C84.46 27.604 84.0407 29.134 83.202 30.426C82.3633 31.6953 81.1733 32.67 79.632 33.35C78.0907 34.03 76.2547 34.37 74.124 34.37H66.882L69.33 31.956V41H63.822ZM78.952 41L73.002 32.364H78.884L84.902 41H78.952ZM69.33 32.568L66.882 29.984H73.818C75.518 29.984 76.7873 29.6213 77.626 28.896C78.4647 28.148 78.884 27.128 78.884 25.836C78.884 24.5213 78.4647 23.5013 77.626 22.776C76.7873 22.0507 75.518 21.688 73.818 21.688H66.882L69.33 19.07V32.568ZM95.964 41L85.696 17.2H91.646L100.622 38.28H97.12L106.232 17.2H111.706L101.404 41H95.964ZM112.329 41V37.43L127.051 19.682L127.731 21.688H112.601V17.2H132.627V20.77L117.939 38.518L117.259 36.512H133.137V41H112.329Z" fill="black"/>
</g>
<defs>
<clipPath id="clip0_1_788">
<rect width="136" height="57" fill="white"/>
</clipPath>
</defs>
</svg>
